
<svg version="1.0" xmlns="http://www.w3.org/2000/svg"
 width="256.000000pt" height="256.000000pt" viewBox="0 0 256.000000 256.000000"
 preserveAspectRatio="xMidYMid meet">

<g transform="translate(0.000000,256.000000) scale(0.100000,-0.100000)"
fill="#000000" stroke="none">
<path d="M1798 2391 c-70 -23 -121 -60 -181 -130 -53 -61 -127 -204 -127 -243
0 -14 -3 -39 -6 -55 l-6 -30 -166 5 c-140 3 -182 1 -262 -16 -170 -35 -328
-111 -428 -206 -90 -84 -167 -226 -204 -374 -29 -114 -31 -350 -5 -456 57
-227 174 -388 360 -494 162 -93 312 -127 531 -119 184 6 270 26 411 97 163 82
267 182 340 328 65 131 79 202 79 412 0 173 -2 191 -28 275 -68 224 -199 373
-410 470 -39 18 -97 40 -128 49 -57 16 -58 17 -58 54 0 61 7 65 81 45 94 -25
237 -23 311 6 75 29 140 81 194 153 48 66 110 185 101 194 -3 4 -32 15 -64 26
-85 30 -259 34 -335 9z m241 -27 c110 -24 111 -27 65 -113 -101 -188 -245
-258 -441 -216 -44 10 -86 21 -93 25 -19 12 -3 62 40 127 65 99 135 158 220
184 42 13 138 10 209 -7z m-606 -474 c40 -12 45 -28 31 -100 -6 -26 -11 -31
-28 -26 -20 5 -20 5 -2 -9 23 -17 79 -29 98 -22 7 3 0 6 -16 6 l-29 1 7 62 c3
34 8 63 10 65 2 3 39 -13 83 -34 98 -48 223 -167 272 -261 81 -156 106 -289
98 -526 -6 -190 -26 -280 -89 -406 -55 -108 -153 -210 -250 -258 -111 -55
-204 -74 -353 -74 -222 0 -354 49 -486 181 -124 124 -178 258 -201 498 -14
143 -1 300 33 423 87 316 359 511 689 495 52 -3 112 -10 133 -15z"/>
</g>
</svg>
